PathFileType        4      (X/Y/Z)      Walking.trc         
DataRate	CameraRate	NumFrames	NumMarkers	Units	OrigDataRate	OrigDataStartFrame	OrigNumFrames
100.0	100.0	12	22	mm	100.0	29	84
Frame#	Time	T2			T10			MANU			LASI			RASI			SACR			LTHI			LKNE			LTIB			LANK			LHEE			LTOE			LD1MH			LD5MH			RTHI			RKNE			RTIB			RANK			RHEE			RTOE			RD1MH			RD5MH			
		X1	Y1	Z1	X2	Y2	Z2	X3	Y3	Z3	X4	Y4	Z4	X5	Y5	Z5	X6	Y6	Z6	X7	Y7	Z7	X8	Y8	Z8	X9	Y9	Z9	X10	Y10	Z10	X11	Y11	Z11	X12	Y12	Z12	X13	Y13	Z13	X14	Y14	Z14	X15	Y15	Z15	X16	Y16	Z16	X17	Y17	Z17	X18	Y18	Z18	X19	Y19	Z19	X20	Y20	Z20	X21	Y21	Z21	X22	Y22	Z22	
29	1.52	406.90895963	1109.56813608	-86.25355223	396.26298086	929.44362623	-93.10432628	519.28314872	1082.00154791	-87.14181045	530.11958396	721.02981112	-155.17193364	503.75193437	732.822094	13.03966295	385.1143766	776.40504496	-99.41735305	596.57117756	463.50395007	-229.84765027	608.09599865	405.96827178	-183.03378608	564.00325165	184.89090936	-229.56921112	545.72706152	97.53649997	-182.94254196	493.46450747	55.4968307	-143.97228359	663.12347282	44.88083858	-165.34855425	660.20512526	38.24221986	-114.83988409	628.16790902	36.20293239	-201.68527513	411.44451317	444.90011821	53.70583211	396.21940927	368.17430068	-3.88638614	309.60723442	143.75616229	13.39073691	295.94289858	62.47832237	-40.17321234	248.79225366	25.93299456	-84.85054203	424.77925239	28.32188494	-63.25723418	412.0697151	21.87621281	-115.38094916	389.51072577	13.38501284	-19.78695302	
30	1.53	420.74846037	1108.06034335	-85.89702662	410.60849959	927.81812617	-93.55375182	533.32305418	1080.4414844	-86.32097047	545.42878681	719.42249085	-155.16566704	516.81049184	730.83949341	13.05231266	399.69010462	774.93212004	-101.46056898	609.3660963	460.38216807	-229.86849167	622.32958304	403.88520426	-182.48137855	595.24264247	179.77961366	-228.76533514	583.88283719	91.60505727	-182.02822959	534.79579638	45.85562063	-143.62232501	704.75222704	48.51746851	-162.74854649	701.58345657	41.56944583	-112.33202045	671.19830156	37.19435893	-199.70044493	416.96084195	445.09063672	53.03596689	400.2248443	368.32641345	-4.27939879	310.65292745	144.94312186	13.05555327	296.32782799	63.59432882	-40.51176076	248.94619744	27.56248921	-85.31593354	424.81462787	28.20412738	-63.24900683	412.2577361	21.88355239	-115.40716126	389.27721015	13.4365175	-19.85751899	
31	1.54	434.69436022	1106.33421814	-85.69808704	425.14006093	925.97131671	-94.10514203	547.49279512	1078.69798221	-85.60542952	560.93573731	717.59442853	-155.18429764	530.15316612	728.70950144	13.02621573	414.51995194	773.26237064	-103.47756385	621.80685388	456.61631501	-229.95404784	636.10855024	401.29075535	-181.92536207	625.7611228	175.19002743	-227.75284569	621.26595834	86.63406225	-180.79567874	575.67271296	37.51426357	-142.79360504	745.10146773	53.4339622	-159.83733953	741.75093075	46.25244251	-109.52008845	713.07281827	39.46251945	-197.35497761	422.82583126	445.29937136	52.40607475	404.63081423	368.52887596	-4.6453363	311.77378144	146.38553506	12.69591281	296.74180508	64.9305775	-40.85449642	249.12935623	29.49772042	-85.82177829	424.8510154	28.08938736	-63.22317842	412.4586719	21.96908875	-115.41669916	389.03562346	13.48533584	-19.94727867	
32	1.55	448.75392434	1104.4255839	-85.66587334	439.86408809	923.93946462	-94.74906241	561.79492108	1076.81516002	-85.02470089	576.65463032	715.603747	-155.21596852	543.80665909	726.4682213	12.96551431	429.6163793	771.43220339	-105.43622919	634.2299789	452.41216343	-230.04981978	649.66343467	398.33792214	-181.35399476	655.29543236	171.16578489	-226.53931847	657.40858992	82.60895245	-179.26308467	615.47656896	30.52772426	-141.47990945	783.68514386	59.33246861	-156.74243828	780.2433292	51.99953586	-106.52562303	753.22923175	42.771277	-194.73400489	429.16915633	445.49880181	51.78645852	409.55992295	368.76601344	-5.02283155	313.01549091	148.12330323	12.27805845	297.20917976	66.52937636	-41.21792703	249.35833673	31.78458607	-86.39638697	424.91263618	27.98134648	-63.17969437	412.70356042	22.13528202	-115.40609564	388.79879279	13.536486	-20.05857022	
33	1.56	462.93288681	1102.37488968	-85.80500651	454.78376129	921.76319247	-95.47348932	576.23018116	1074.84049559	-84.60504996	592.59630216	713.51334957	-155.2524162	557.79444791	724.15288688	12.8727882	444.98627299	769.48137462	-107.30594394	646.96436108	448.00137174	-230.0935648	663.23762414	395.19218107	-180.75442201	683.59472591	167.71350788	-225.14379734	691.83792904	79.45727028	-177.46859369	653.53836221	24.87723413	-139.72274363	820.02154187	65.76105543	-153.58402107	816.58062691	58.36333483	-103.46103281	791.10420847	46.74736884	-191.92774462	436.12301139	445.66257095	51.14948411	415.14373708	369.01798233	-5.44563012	314.44429028	150.19516065	11.77936451	297.7682321	68.43487361	-41.60797109	249.66001606	34.47550941	-87.05616564	425.01853653	27.87927367	-63.12310266	413.01560152	22.37875473	-115.37366526	388.57599434	13.58923895	-20.19334849	
34	1.57	477.23502192	1100.22663264	-86.11533073	469.89852858	919.48688897	-96.26416186	590.79743998	1072.82354145	-84.36818185	608.76685584	711.38931102	-155.28994656	572.13580623	721.80128959	12.74863083	460.63015828	767.45253434	-109.05835472	660.30346176	443.62524356	-230.02316253	677.06876958	392.02125396	-180.11357553	710.43632371	164.80603023	-223.59572166	724.10629288	77.05803709	-175.46821219	689.18459337	20.4762699	-137.60838746	853.66872298	72.14831941	-150.46100846	850.30134982	64.77562751	-100.41623391	826.1737974	50.90814005	-189.02090426	443.81436251	445.76756668	50.47593552	421.51721001	369.26079521	-5.93508606	316.14874813	152.63605666	11.19489263	298.47507092	70.69127207	-42.01528258	250.07678142	37.63110121	-87.79883843	425.17591182	27.77538951	-63.06270807	413.40301618	22.69107939	-115.31963627	388.36909687	13.63492156	-20.3538002	
35	1.58	491.66175592	1098.02856191	-86.59180697	485.20368113	917.15793363	-97.10501211	605.49357447	1070.8145609	-84.33005629	625.16639304	709.29902815	-155.32998459	586.84465722	719.45114446	12.59136912	476.54164159	765.39056015	-110.66816848	674.48098716	439.51597849	-229.7849707	691.36905053	388.98434329	-179.4195418	735.63810481	162.38944958	-221.93289647	753.82054702	75.25750012	-173.33156828	721.78899556	17.18636761	-135.25819915	884.25690278	77.86196117	-147.44337582	880.99818141	70.60531185	-97.45197947	857.99120707	54.71182617	-186.08616492	452.36016582	445.79426771	49.76004891	428.81426108	369.46569594	-6.49427586	318.24130725	155.47397147	10.54172433	299.40784144	73.3411447	-42.41271785	250.67269208	41.32158593	-88.59859382	425.37502056	27.65328339	-63.01191052	413.85410037	23.06081093	-115.24608931	388.16990159	13.65737298	-20.54292854	
36	1.59	506.21188682	1095.83063726	-87.22457938	500.69004585	914.82571837	-97.97868736	620.31336959	1068.86312337	-84.49989989	641.78795296	707.30914839	-155.37913456	601.92833191	717.13940894	12.3969774	492.70709819	763.34163688	-112.11396743	689.65263197	435.87769584	-229.34139952	706.30634386	386.22189036	-178.66324157	759.0664392	160.39288811	-220.19880431	780.66795809	73.88905753	-171.13605897	750.82449746	14.8398546	-132.81426347	911.51432327	82.28461219	-144.57122062	908.35053268	75.23262928	-94.60045962	886.21825244	57.62464189	-183.18269735	461.86606766	445.72522452	49.01239802	437.16508793	369.59794653	-7.10468393	320.8595095	158.72642705	9.86034951	300.67063078	76.42416424	-42.75550772	251.53983027	45.62750811	-89.40412132	425.58735392	27.48854444	-62.98678995	414.33614005	23.47686522	-115.15672762	387.9600333	13.63749497	-20.76469858	
37	1.6	520.88145932	1093.68374286	-87.99923303	516.34384584	912.5404698	-98.86717245	635.24943258	1067.01670157	-84.87948257	658.61675874	705.48333652	-155.44874655	617.38634767	714.90158481	12.15921856	509.10562433	761.35207881	-113.37903485	705.88531171	432.86982093	-228.67658821	721.98821427	383.84682156	-177.84018649	780.63938061	158.73925346	-218.43959223	804.43595565	72.79409527	-168.9601496	775.90945749	13.26451603	-130.42287794	935.28463067	84.89626255	-141.85952439	932.15059582	78.12935388	-91.87204671	910.64815858	59.19458589	-180.35912759	472.42795411	445.54217384	48.26021889	446.69502511	369.61547096	-7.7259687	324.1663693	162.39719512	9.21278041	302.39614827	79.97654409	-42.98430621	252.80370674	50.63918038	-90.1402854	425.76855975	27.25269729	-63.00388684	414.79974035	23.93336091	-115.05634045	387.71465631	13.5627171	-21.02331915	
38	1.61	535.6638145	1091.63818901	-88.89725547	532.14677289	910.35189908	-99.7525078	650.29214618	1065.31932032	-85.46271692	675.62986354	703.87997499	-155.55404111	633.20935514	712.77104359	11.87002129	525.70928319	759.46694142	-114.45215254	723.15403415	430.59513255	-227.79943689	738.45029106	381.93796996	-176.95207598	800.32552779	157.35506069	-216.70105	825.02394847	71.84008109	-166.87669436	796.84255644	12.30453397	-128.21828416	955.53513081	85.35013898	-139.30650675	952.32056049	78.93234608	-89.26579218	931.21851944	59.11912505	-177.65910694	484.13474264	445.22283154	47.5452217	457.52405567	369.46813947	-8.2988135	328.34893067	166.47390055	8.67749262	304.74608573	84.03133052	-43.03086734	254.62632014	56.45430162	-90.71375476	425.86721872	26.92107938	-63.07695586	415.18969705	24.43600623	-114.94966166	387.41094068	13.44095237	-21.3213214	
39	1.62	550.5498033	1089.7420666	-89.89670512	548.07630714	908.30772981	-100.61757993	665.42968091	1063.81031178	-86.23562832	692.79626774	702.54991626	-155.71288722	649.37841627	710.77841713	11.52007547	542.4836798	757.72851846	-115.32830251	741.34559635	429.09391524	-226.74371187	755.65012035	380.5360111	-176.00804729	818.13936826	156.17758524	-215.02585378	842.4461676	70.93273992	-164.94712268	813.6216265	11.83311682	-126.3087334	972.35614209	83.52839031	-136.90311062	968.91970479	77.49755361	-86.78065726	948.01382031	57.2935924	-175.12698833	497.07032058	444.73868358	46.91932536	469.76569976	369.09863139	-8.75041676	333.61388129	170.92728351	8.34171881	307.90815042	88.61939193	-42.82572347	257.20546187	63.1731771	-91.02230855	425.83990632	26.48446087	-63.2124392	415.46272308	25.00981563	-114.83927959	387.04156696	13.31700084	-21.6562985	
40	1.63	565.52812436	1088.03954742	-90.9730766	564.10630255	906.45217629	-101.44694141	680.6480854	1062.52323199	-87.17672736	710.0775432	701.53441703	-155.94435415	665.86476193	708.95109189	11.09960109	559.38889187	756.17485828	-116.00918552	760.26787098	428.34449163	-225.56534132	773.4670967	379.64198244	-175.02544294	834.13405075	155.1582508	-213.45130025	856.82541894	70.02042126	-163.21720125	826.44314798	11.75480679	-124.76653782	985.95192392	79.56590269	-134.64141184	982.14067781	73.92360862	-84.42452694	961.25713476	53.82962487	-172.81120172	511.31270105	444.0549916	46.43899901	483.52409492	368.44569157	-9.00185704	340.17934944	175.71274104	8.29197768	312.0891834	93.77060309	-42.30694005	260.76919111	70.89107133	-90.96691082	425.67198618	25.96307163	-63.40365678	415.61111345	25.70714691	-114.72237524	386.6326227	13.28783682	-22.01650622	
